<svg t="1691227431175" class="icon" viewBox="0 0 1024 1024" version="1.1" xmlns="http://www.w3.org/2000/svg" p-id="1180" width="200" height="200"><path d="M546.772 784.393l-32.401-96.667-32.402 96.667s-138.25-8.101-71.287 7.019c66.964 15.123 103.689 185.774 103.689 185.774s36.723-170.651 103.684-185.774c66.966-15.12-71.283-7.019-71.283-7.019zM304.628 514.881s-17.774-56.879 18.959-135.087c0 0 66.359-106.648 122.054-114.944 0 0 20.144-3.554 49.769 33.18l16.59 1.185 16.589-1.185c29.625-36.734 49.768-33.18 49.768-33.18 55.694 8.296 122.056 114.944 122.056 114.944 36.733 78.208 18.959 135.087 18.959 135.087 73.469 43.845 139.827 0 139.827 0-50.955-50.954-62.804-86.503-62.804-86.503-137.458-245.291-232.256-216.853-232.256-216.853l-8.292-10.664 59.246-39.104c5.926-9.48 2.37-29.625 2.37-29.625-34.365-41.474-105.462-85.319-105.462-85.319s-71.099 43.845-105.463 85.319c0 0-3.556 20.145 2.37 29.625l59.248 39.104-8.292 10.664s-94.8-28.438-232.257 216.853c0 0-11.851 35.549-62.805 86.503-0.001 0 66.358 43.845 139.826 0z" fill="#8a8a8a" p-id="1181"></path><path d="M577.062 274.241a4.237 4.237 0 0 0-0.246-0.005c-1.726 0-17.53 0.835-40.847 29.746l-2.588 3.209-1.356 0.098c30.389 83.5 97.56 149.324 181.925 177.886 0.938-22.859-2.164-58.631-21.881-100.843-18.124-28.959-73.166-103.753-115.007-110.091zM795.48 407.663c-21.795-71.418-70.049-131.28-133.349-168.173 36.911 29.3 82.267 80.272 133.349 168.173zM446.94 274.241c-41.844 6.339-96.885 81.132-115.008 110.09-20.27 43.387-23.061 79.727-21.894 102.417 86.48-27.635 155.539-94.223 186.557-179.129l-5.974-0.428-2.589-3.209c-23.315-28.911-39.121-29.746-40.846-29.746l-0.088 0.001-0.334 0.089 0.24-0.088a0.736 0.736 0 0 1-0.064 0.003zM347.4 251.711c-48.443 33.508-86.322 81.188-107.65 137.054 40.133-65.952 76.479-109.041 107.65-137.054zM475.275 774.531l25.433-75.872c-28.4-89.724-98.708-160.775-187.941-190.268 0.507 2.31 0.886 3.584 0.911 3.661l2.229 7.139-6.42 3.829c-23.155 13.82-47.973 20.828-73.762 20.828-3.771 0-7.441-0.16-11.013-0.432C243.17 651.4 320.562 739.242 422.6 772.763c18.9 0.138 41.354 1.182 52.675 1.768zM788.276 543.848c-25.792 0-50.605-7.008-73.762-20.828l-6.42-3.829 2.228-7.139c0.017-0.052 0.216-0.741 0.506-1.957-86.792 30.488-154.943 100.563-182.795 188.56l25.434 75.876c11.318-0.586 33.774-1.63 52.676-1.769 102.175-33.566 179.636-121.603 197.958-229.788a144.34 144.34 0 0 1-15.817 0.873l-0.008 0.001z" fill="#8a8a8a" p-id="1182"></path></svg>