<svg t="1692523873191" class="icon" viewBox="0 0 1448 1024" version="1.1" xmlns="http://www.w3.org/2000/svg" p-id="4084" width="200" height="200"><path d="M490.616207 205.515603s102.167773 84.645827 233.503239 84.645827 236.412095-84.645827 236.412095-84.645827 113.844483-102.157452 55.467814-145.929633c-58.37667-43.792824-145.939954 14.583846-145.939954 14.583846S802.916597 1.200699 724.119446 1.200699c-78.817793 0-143.010456 72.969117-143.010455 72.969117S493.525064 15.794866 435.150114 59.58769c-58.37667 43.770461 55.466093 145.927913 55.466093 145.927913z" fill="#02b8e3" p-id="4085"></path><path d="M1208.637549 768.830856s37.935546-110.914985-49.629459-291.867867c-93.40164-189.720736-218.89875-192.639914-218.89875-192.639914S846.707701 342.698024 724.117726 342.698024c-122.588254 0-213.060395-58.37495-213.060395-58.374949s-128.426609 0-221.828249 195.559091c-84.635506 175.128289-49.608816 291.878188-49.608816 291.878189S41.145437 1022.775218 724.119446 1022.775218c682.996371 0 484.518102-253.944362 484.518103-253.944362z" fill="#02b8e3" p-id="4086"></path></svg>