<?xml version="1.0" standalone="no"?><!DOCTYPE svg PUBLIC "-//W3C//DTD SVG 1.1//EN" "http://www.w3.org/Graphics/SVG/1.1/DTD/svg11.dtd"><svg t="1750867453931" class="icon" viewBox="0 0 1024 1024" version="1.1" xmlns="http://www.w3.org/2000/svg" p-id="1491" xmlns:xlink="http://www.w3.org/1999/xlink" width="200" height="200"><path d="M730.5216 852.9408c0 29.952-23.808 54.3744-52.992 54.3744H295.3216a53.76 53.76 0 0 1-53.0432-54.3744V275.9168h488.2432v577.024zM348.3648 178.3808c0-6.2976 4.7616-11.1616 10.8544-11.1616h254.976c6.144 0 10.9056 4.864 10.9056 11.1616v32.768H348.3648v-32.768z m541.2864 32.768h-201.2672v-32.768c0-41.8304-33.3312-75.9808-74.1376-75.9808h-254.976c-40.96 0.1024-74.0352 34.048-74.1376 75.9808v32.768H83.1488A32.3072 32.3072 0 0 0 51.2 243.8144c0 18.1248 14.2848 32.768 31.9488 32.768h95.232v576.3072C178.3808 919.1424 230.7072 972.8 295.3216 972.8h382.1568c64.6144 0 116.9408-53.6576 116.9408-119.8592V275.9168h95.232A32.3072 32.3072 0 0 0 921.6 243.2a31.744 31.744 0 0 0-31.9488-32.0512zM486.4 808.96a32.3072 32.3072 0 0 0 31.9488-32.768V427.8784a32.3072 32.3072 0 0 0-31.9488-32.768 32.3072 32.3072 0 0 0-31.9488 32.768v348.4672c0 18.1248 14.2848 32.768 31.9488 32.768z m-148.9408 0a32.3072 32.3072 0 0 0 32-32.768V427.8784a32.3072 32.3072 0 0 0-32-32.768 32.3072 32.3072 0 0 0-31.9488 32.768v348.4672c0.6656 18.1248 14.9504 32.768 31.9488 32.768z m297.8816 0a32.3584 32.3584 0 0 0 31.9488-32.768V427.8784a32.3072 32.3072 0 0 0-31.9488-32.768 32.3584 32.3584 0 0 0-32 32.768v348.4672c0 18.1248 14.336 32.768 32 32.768z" fill="#FF2F2F" p-id="1492"></path></svg>