<svg t="1694967664240" class="icon" viewBox="0 0 1024 1024" version="1.1" xmlns="http://www.w3.org/2000/svg" p-id="21461" width="200" height="200"><path d="M469.77219 264.094476c-48.859429-44.519619-30.134857-97.133714 3.340191-143.262476q20.041143-27.623619 39.18019-55.856762 0.682667-0.975238 1.365334-0.024381 40.984381 57.197714 51.443809 73.337905c25.283048 39.082667 33.01181 88.624762-4.583619 122.441143q-23.625143 21.23581-46.543238 43.471238-0.78019 0.75581-1.560381 0-20.821333-20.260571-42.642286-40.106667z m-342.430476-22.674286c24.234667 1.024 49.590857 12.970667 59.611429 36.010667q2.755048 6.314667 4.729905 21.991619 2.218667 17.359238 5.924571 34.620953 0.24381 1.170286-0.926476 1.340952c-19.772952 2.998857-45.031619 9.216-62.439619 6.339048-45.104762-7.43619-56.685714-64.170667-68.461714-100.278858a1.26781 1.26781 0 0 1 1.219047-1.657904q29.96419 0.341333 60.342857 1.633523z m704.487619 78.482286c3.705905-27.209143 3.730286-53.979429 32.134096-68.461714q20.406857-10.386286 43.446857-10.849524 26.258286-0.512 52.540952-0.975238 1.243429-0.024381 0.902095 1.194667-9.337905 31.524571-22.137904 61.537523c-14.750476 34.620952-41.642667 43.934476-76.507429 38.058667q-16.042667-2.730667-32.036571-4.778667-1.511619-0.195048-1.292191-1.706666c0.682667-4.729905 2.438095-10.118095 2.950095-14.019048z" fill="#88B651" p-id="21462"></path><path d="M476.038095 886.320762c-31.232-49.444571-78.555429-71.484952-129.926095-96.304762q-38.546286-18.651429-83.236571-49.737143-24.917333-17.359238-38.448762-29.842286c-68.583619-63.439238-98.377143-166.619429-80.896-257.462857 8.801524-45.787429 27.501714-88.941714 61.805714-121.465904 46.494476-44.105143 114.005333-72.728381 179.273143-64.170667q55.320381 7.241143 94.915047 45.177905c7.021714 6.753524 15.798857 18.724571 12.995048 28.769523q-5.412571 19.553524-20.528762 31.158858a3.193905 3.218286 54 0 1-4.583619-0.707048c-16.969143-24.551619-30.354286-39.789714-59.611428-48.688762-81.724952-24.81981-165.961143 10.776381-201.874286 88.259048-14.945524 32.231619-22.040381 67.584-17.164191 103.497143q14.482286 107.032381 105.081905 170.276571 20.943238 14.628571 57.392762 32.865524c24.990476 12.507429 59.904 25.33181 86.28419 39.204571 34.011429 17.846857 53.881905 46.32381 74.898286 79.555048a0.975238 0.999619 44.8 0 0 1.682286-0.024381q12.946286-20.626286 19.017143-29.232762c32.792381-46.299429 75.776-60.562286 131.754666-84.065524q15.506286-6.509714 48.152381-26.185143 25.404952-15.335619 40.082286-27.696762c72.679619-61.269333 111.201524-167.960381 67.803429-257.974857q-44.982857-93.330286-152.332191-96.792381-9.557333-0.316952-24.795428 2.486857c-41.935238 7.704381-60.879238 19.334095-84.626286 54.613334a3.291429 3.31581 36.2 0 1-4.778667 0.755809c-10.556952-8.338286-22.28419-25.404952-20.918857-39.667809 0.512-5.436952 9.97181-16.920381 15.043048-21.772191 79.945143-76.580571 203.849143-47.152762 274.724571 22.869334 58.538667 57.807238 75.288381 150.991238 58.733714 228.742095-17.13981 80.432762-54.223238 133.656381-121.587809 179.760762-44.27581 30.305524-86.552381 50.688-131.559619 73.337905-56.32 28.355048-86.698667 76.141714-111.323429 132.754285-1.511619 3.486476-1.974857 8.801524-3.364571 12.897524q-0.707048 2.096762-1.340953-0.024381c-8.118857-26.721524-21.723429-51.395048-36.742095-75.166476z" fill="#88B651" p-id="21463"></path><path d="M304.88381 560.615619c-35.644952-30.646857-57.148952-74.020571-36.278858-120.734476 30.500571-68.291048 140.214857-86.28419 177.054477-14.506667a1.024 1.024 0 0 1-1.340953 1.389714c-38.619429-17.749333-75.727238 9.264762-89.965714 44.470858-9.923048 24.576-8.679619 47.981714 1.316571 73.020952 20.72381 51.785143 72.97219 77.360762 101.424762 124.416a0.999619 0.999619 0 0 1-1.462857 1.29219q-61.561905-47.713524-134.534095-76.8c-26.35581-10.50819-53.467429-5.534476-77.726476 7.460572a0.975238 0.999619 0.8 0 1-1.316572-1.365333q20.163048-35.864381 62.122667-36.620191a1.145905 1.145905 0 0 0 0.707048-2.023619z m417.426285 2.023619q42.203429 0.731429 62.415238 36.961524a0.804571 0.804571 0 0 1-1.072762 1.121524q-19.090286-9.923048-40.691809-13.116953c-19.18781-2.82819-37.546667 5.095619-58.465524 14.409143q-60.68419 26.989714-113.176381 67.681524a1.194667 1.194667 0 0 1-1.755428-1.560381c16.603429-26.989714 38.448762-46.275048 61.537523-67.462095 26.86781-24.697905 49.712762-63.585524 47.786667-100.108191-1.80419-34.645333-24.771048-69.071238-59.708952-78.116571-12.409905-3.218286-24.697905-0.390095-36.668953 3.681524a0.950857 0.950857 0 0 1-1.170285-1.316572c21.138286-43.690667 71.899429-53.126095 115.273142-38.66819q60.123429 19.992381 69.241905 81.505524c5.241905 35.328-18.261333 69.827048-44.348952 92.842666a1.243429 1.219048 24.8 0 0 0.804571 2.145524z m-581.973333-3.681524q1.462857 1.340952 0.048762 2.755048c-18.066286 17.993143-27.40419 39.960381-58.684953 29.062095q-25.283048-8.801524-46.787047-24.819809a0.536381 0.560762 46.3 0 1 0.024381-0.902096c17.115429-11.702857 39.15581-34.06019 60.17219-33.523809 19.21219 0.512 31.548952 14.969905 45.226667 27.428571z m850.651428 6.022096q1.121524 0.853333-0.02438 1.682285-21.504 15.067429-46.860191 24.454095c-29.720381 11.02019-42.300952-13.385143-58.270476-29.793523q-0.828952-0.828952 0.024381-1.657905c16.944762-16.335238 31.427048-32.889905 55.929905-26.624 15.60381 3.974095 34.474667 20.796952 49.200761 31.939048z" fill="#88B651" p-id="21464"></path></svg>