<svg t="1693737000602" class="icon" viewBox="0 0 1024 1024" version="1.1" xmlns="http://www.w3.org/2000/svg" p-id="6987" data-spm-anchor-id="a313x.search_index.0.i5.85f63a8145ilqA" width="200" height="200"><path d="M550.373053 46.565053a47.319579 47.319579 0 0 0-76.8 0c-94.854737 131.610947-332.476632 418.654316-332.476632 581.685894 0 203.668211 166.049684 368.801684 370.903579 368.801685s370.903579-165.079579 370.903579-368.801685c0.053895-163.031579-237.621895-450.074947-332.530526-581.685894z m108.490105 734.369684a43.654737 43.654737 0 0 1-58.529684 0.107789l-88.333474-91.621052-88.387368 91.621052a43.493053 43.493053 0 0 1-58.47579-0.107789 36.756211 36.756211 0 0 1-0.107789-54.541474l88.387368-91.513263-88.387368-82.351158a36.648421 36.648421 0 0 1 0.107789-54.487579 43.600842 43.600842 0 0 1 58.47579-0.107789l88.387368 82.405052 88.333474-82.405052a43.546947 43.546947 0 0 1 58.529684 0.107789c16.168421 15.036632 16.168421 39.504842 0.053895 54.487579l-88.333474 82.351158 88.333474 91.513263c16.060632 15.090526 16.168421 39.397053-0.053895 54.541474z" fill="#911404" p-id="6988" data-spm-anchor-id="a313x.search_index.0.i1.85f63a8145ilqA" class=""></path></svg>