<svg t="1691227645704" class="icon" viewBox="0 0 1024 1024" version="1.1" xmlns="http://www.w3.org/2000/svg" p-id="9359" width="200" height="200"><path d="M366.805333 220.714667c-134.016 200.704-201.002667 345.216-201.002666 433.578666a286.293333 286.293333 0 0 0 572.544 0c0-100.650667-86.954667-274.176-260.864-520.618666l-25.429334-35.712c-13.098667 18.218667-25.770667 36.096-37.973333 53.546666l47.914667 74.325334c139.733333 209.109333 209.450667 356.821333 209.450666 431.104a219.392 219.392 0 1 1-438.784 0c0-67.541333 57.642667-195.797333 173.141334-375.722667l-38.997334-60.501333zM768.725333 173.482667V87.210667h-64v86.272h-86.229333v64h86.229333v89.472h64V237.482667h89.472v-64h-89.472z" p-id="9360" fill="#69f673"></path></svg>