<svg t="1694967615282" class="icon" viewBox="0 0 1024 1024" version="1.1" xmlns="http://www.w3.org/2000/svg" p-id="21149" width="200" height="200"><path d="M629.321143 898.413714c160.889905-57.295238 256.048762-222.622476 227.230476-389.193143-18.846476-108.860952-84.333714-193.194667-179.931429-247.734857-50.93181-29.037714-112.956952-41.691429-171.324952-41.618285-99.913143 0.121905-203.751619 52.687238-264.533333 131.218285-18.285714 23.625143-29.037714 36.668952-59.075048 33.938286-35.791238-3.267048-66.584381-30.96381-54.076952-69.729524q5.729524-17.749333 16.237714-33.158095c29.45219-43.105524 62.976-81.846857 105.569524-112.566857 116.906667-84.309333 269.263238-111.762286 405.162667-62.220191 90.063238 32.841143 163.742476 88.746667 216.234666 169.545143 37.229714 57.295238 63.853714 122.392381 70.558476 191.195429 30.45181 311.515429-268.53181 551.15581-566.003809 453.802666-44.958476-14.701714-79.555048-41.862095-111.079619-77.433904q-3.413333-3.85219-5.802667-5.924572a1.072762 1.072762 0 0 1 1.219048-1.755428c55.344762 30.012952 113.90781 53.955048 176.664381 62.512762q44.032 5.997714 84.163047 5.266285c141.775238-2.608762 246.588952-139.946667 218.721524-276.796952-16.65219-81.749333-72.94781-145.237333-150.869333-172.763429-36.425143-12.873143-79.676952-18.236952-116.589714-10.752-32.694857 6.631619-61.488762 22.723048-89.039239-2.803809-24.161524-22.357333-26.989714-60.416-2.755047-84.528762 12.8-12.726857 33.767619-19.236571 51.565714-24.088381 204.702476-55.783619 402.139429 110.518857 379.367619 321.926095-9.508571 88.429714-60.123429 166.15619-133.095619 216.356572q-10.044952 6.92419-48.883809 26.477714a0.463238 0.463238 0 0 0 0.365714 0.828952z" fill="#488CCB" p-id="21150"></path><path d="M139.776 519.996952m-58.61181 0a58.61181 58.61181 0 1 0 117.22362 0 58.61181 58.61181 0 1 0-117.22362 0Z" fill="#488CCB" p-id="21151"></path><path d="M540.623238 569.758476c52.345905 8.484571 99.352381 49.42019 111.85981 102.058667q5.36381 22.479238 1.194666 40.277333c-10.48381 45.056-64.926476 64.512-95.305143 24.502857-13.092571-17.237333-13.824-42.617905-28.013714-57.660952-16.042667-16.993524-44.690286-19.309714-65.194667-11.239619q-16.481524 6.460952-31.963428 20.821333c-19.163429 17.798095-27.014095 40.838095-24.600381 67.291429 6.607238 71.94819 81.408 111.469714 147.187809 94.354286q25.673143-6.680381 50.590477-23.966477c11.629714-8.094476 23.673905-19.992381 35.474285-30.086095a0.804571 0.804571 0 0 1 1.219048 1.048381c-46.543238 74.020571-139.946667 101.376-215.576381 52.931048-82.578286-52.931048-97.401905-164.205714-28.696381-235.641905q56.295619-58.563048 141.824-44.690286z" fill="#488CCB" p-id="21152"></path><path d="M217.33181 709.461333m-41.228191 0a41.22819 41.22819 0 1 0 82.456381 0 41.22819 41.22819 0 1 0-82.456381 0Z" fill="#488CCB" p-id="21153"></path></svg>