<svg t="1685103327279" class="icon" viewBox="0 0 1075 1024" version="1.1" xmlns="http://www.w3.org/2000/svg" p-id="3907" width="200" height="200"><path d="M540.7744 693.4016c-105.8816 0-192-86.1696-192-192s86.1184-192 192-192 192 86.1696 192 192-86.1184 192-192 192z m0-307.2c-63.5392 0-115.2 51.712-115.2 115.2s51.6608 115.2 115.2 115.2 115.2-51.712 115.2-115.2-51.6608-115.2-115.2-115.2z" fill="#13227a" p-id="3908"></path><path d="M540.7744 862.1056a387.584 387.584 0 0 1-106.2912-15.4112 430.1312 430.1312 0 0 1-28.8256-9.3696c-64.768-23.3984-130.4064-63.4368-195.1232-119.0912C104.6528 627.3536 37.8368 526.5408 35.072 522.2912a38.2976 38.2976 0 0 1 0-42.1888c0.9728-1.4848 24.5248-37.1712 65.3824-84.992a38.4 38.4 0 0 1 58.4192 49.92c-19.3024 22.5792-34.4576 42.24-44.6464 56.1664 24.2688 32.9216 76.5952 98.9184 146.3808 158.8224 57.6 49.5616 115.2 84.8896 171.2128 105.1648 7.936 2.816 15.872 5.4272 23.8592 7.68a310.784 310.784 0 0 0 85.0944 12.3904c200.3968 0 375.4496-215.04 426.5472-284.16a1020.928 1020.928 0 0 0-54.8352-67.84c-50.7392-57.6-103.424-104.96-156.5696-140.8-151.9616-102.5024-288.6656-99.9936-440.7808 7.2704a38.3488 38.3488 0 1 1-44.288-62.7712c178.0736-125.44 349.696-128.4096 527.9744-8.1408 58.5728 39.4752 116.224 91.2384 171.264 153.7024a972.8 972.8 0 0 1 76.3392 97.5872 38.2976 38.2976 0 0 1 0 42.1888c-9.0624 13.824-226.6112 339.8144-505.6512 339.8144z" fill="#13227a" p-id="3909"></path></svg>