<svg t="1685094995598" class="icon" viewBox="0 0 1024 1024" version="1.1" xmlns="http://www.w3.org/2000/svg" p-id="4321" width="200" height="200"><path d="M158.086 233.458l677.005 609.578c14.776 13.304 15.969 36.066 2.665 50.842-13.304 14.775-36.067 15.968-50.842 2.664L685.1 804.87l-63.144 63.145c-128.678 128.677-337.306 128.677-465.984 0-127.39-127.391-128.665-333.142-3.822-462.1l3.822-3.884 38.723-38.723-84.786-76.343c-14.776-13.304-15.969-36.066-2.665-50.842 13.304-14.775 36.067-15.968 50.842-2.664z m90.189 178.092l-41.391 41.392c-100.56 100.56-100.56 263.6 0 364.16 99.554 99.554 260.345 100.55 361.124 2.986l3.036-2.986 60.476-60.477L248.275 411.55zM867.82 157.179c127.391 127.39 128.665 333.14 3.822 462.1l-3.822 3.883-44.33 44.33c-14.058 14.059-36.852 14.059-50.911 0-13.918-13.919-14.057-36.398-0.418-50.488l0.418-0.424 44.33-44.33c100.56-100.56 100.56-263.6 0-364.16-99.555-99.554-260.346-100.55-361.125-2.986l-3.036 2.987-74.579 74.579c-14.059 14.059-36.853 14.059-50.912 0-13.918-13.918-14.057-36.398-0.42-50.49l75-75.001C530.516 28.5 739.143 28.5 867.82 157.179z" fill="#d81e06" p-id="4322"></path></svg>