<svg xmlns="http://www.w3.org/2000/svg" version="1.1" viewBox="-5.0 -20.0 110.0 135.0">
 <g fill="#FFFFFF">
  <path d="m33.805 54.246c0.13281 0.39453 0.27344 0.78906 0.41797 1.1797 1.4023 3.7422 3.4219 7.2266 5.9727 10.305 1.3555-0.48047 2.668-1.0781 3.9219-1.7891 0.11719-0.066406 0.23828-0.13672 0.35547-0.20312 1.3789-0.81641 2.6758-1.7656 3.8711-2.8398-2.6914-2.8984-4.6992-6.3672-5.875-10.145-0.11328-0.37109-0.21875-0.74609-0.32031-1.1211-0.097657-0.375-0.1875-0.75781-0.26953-1.1367-0.37891-1.7695-0.57812-3.5703-0.58984-5.3789 0-0.070313-0.003906-0.13672-0.003906-0.20703 0-0.070312 0.003906-0.13672 0.003906-0.20703v0.003906c0.007813-1.2734 0.10547-2.5469 0.29688-3.8047 0.0625-0.42188 0.14062-0.83594 0.22266-1.25 0.085937-0.42188 0.17969-0.83984 0.28516-1.2539 1.0938-4.2891 3.2422-8.2344 6.25-11.477 0.26562-0.28516 0.53516-0.56641 0.80859-0.83984 0.27734-0.27344 0.55859-0.54297 0.84766-0.80469 0.28906 0.26172 0.57031 0.53125 0.84766 0.80469 0.27734 0.27344 0.54297 0.55469 0.80859 0.83984 3.0078 3.2422 5.1562 7.1875 6.25 11.477 3.4922 0.73828 6.8633 1.9688 10.012 3.6523-0.58203-7.332-3.4141-14.301-8.1133-19.957-0.26563-0.32031-0.53906-0.63672-0.81641-0.94922-0.27734-0.3125-0.55469-0.61719-0.84375-0.91797h0.003907c-2.3945-2.5156-5.1367-4.6719-8.1484-6.4023-3.0117 1.7305-5.7539 3.8867-8.1484 6.4023-0.28516 0.30078-0.56641 0.60938-0.84375 0.91797-0.27734 0.3125-0.55078 0.625-0.81641 0.94922h0.003906c-4.6992 5.6562-7.5312 12.629-8.1133 19.957-0.035156 0.45312-0.0625 0.91406-0.082031 1.3711-0.015625 0.42578-0.027344 0.85547-0.03125 1.2852v0.074219 0.11719 0.011718h-0.003906c0 3.4336 0.49219 6.8516 1.4648 10.145 0.12109 0.40234 0.24609 0.79687 0.375 1.1914z"/>
  <path d="m58.148 67.594c0.28516-0.30078 0.56641-0.60938 0.84375-0.91797 0.27734-0.3125 0.55078-0.625 0.81641-0.94922l-0.003906 0.003907c2.5508-3.0781 4.5703-6.5625 5.9727-10.305-1.0938-0.94531-2.2734-1.793-3.5156-2.5273-0.11719-0.070313-0.23828-0.13672-0.35547-0.20313v-0.003906c-1.3906-0.78906-2.8555-1.4375-4.375-1.9375-1.1758 3.7773-3.1836 7.2461-5.875 10.145-0.26562 0.28516-0.53516 0.56641-0.80859 0.83984-0.27734 0.27344-0.55859 0.54297-0.84766 0.80469-1.3438 1.2148-2.8047 2.293-4.3633 3.2109-0.11719 0.070313-0.23828 0.13672-0.35547 0.20312-1.1055 0.62891-2.25 1.1758-3.4297 1.6367-0.39062 0.15234-0.78906 0.29688-1.1875 0.43359-0.40625 0.13672-0.81641 0.26562-1.2305 0.38281-4.2656 1.2148-8.7695 1.332-13.094 0.34375-0.37891-0.085937-0.75781-0.17969-1.1289-0.28125-0.375-0.10156-0.75-0.21094-1.1172-0.33203 0.082031-0.38281 0.17188-0.76172 0.26953-1.1367 0.097657-0.375 0.20312-0.75 0.32031-1.1211h-0.007813c1.3203-4.2266 3.6719-8.0508 6.8438-11.137-1.1094-3.3945-1.7344-6.9258-1.8555-10.496-6.0352 4.1719-10.652 10.09-13.23 16.961-0.14453 0.39062-0.28516 0.78125-0.41797 1.1797-0.13281 0.39453-0.25781 0.79297-0.375 1.1914-0.97266 3.293-1.4648 6.707-1.4648 10.141v0.13281h0.003907c2.9961 1.7539 6.2383 3.0625 9.6172 3.8789 0.40625 0.097656 0.81641 0.19141 1.2305 0.27734 0.40625 0.082031 0.8125 0.15625 1.2227 0.22656 7.25 1.2227 14.699 0.18359 21.34-2.9766 0.41406-0.19531 0.82031-0.40234 1.2227-0.61328 0.37891-0.19922 0.75781-0.40625 1.1289-0.61719l0.058594-0.035156c0.039062-0.023438 0.078125-0.046875 0.12109-0.070313 2.9609-1.7148 5.6641-3.8477 8.0273-6.332z"/>
  <path d="m84.359 63.578c-0.11719-0.39844-0.24219-0.79688-0.375-1.1914s-0.27344-0.78906-0.41797-1.1797v0.003907c-2.5781-6.8711-7.1953-12.785-13.23-16.961-0.37891-0.26172-0.75781-0.51562-1.1445-0.76172-0.36328-0.23047-0.73438-0.45703-1.1055-0.67578l-0.050782-0.03125c-0.042968-0.023438-0.085937-0.050781-0.125-0.074219h-0.003906c-2.9648-1.7188-6.1602-3-9.4922-3.8047-0.40625-0.097656-0.81641-0.19141-1.2305-0.27734-0.40625-0.082031-0.8125-0.15625-1.2227-0.22656-3.9453-0.66406-7.9766-0.66406-11.922 0-0.26953 1.4219-0.41016 2.8633-0.42187 4.3086 0 0.070313-0.003907 0.13672-0.003907 0.20703 0 0.070313 0.003907 0.13672 0.003907 0.20703v-0.003906c0.011718 1.6016 0.18359 3.1953 0.51172 4.7617 3.8633-0.88281 7.8789-0.88281 11.742 0 0.37891 0.085938 0.75781 0.17969 1.1289 0.28125 0.375 0.10156 0.75 0.21094 1.1172 0.33203l0.003906 0.003906c1.7188 0.55469 3.3789 1.2852 4.9492 2.1797 0.11719 0.066407 0.23828 0.13672 0.35547 0.20312v0.003906c1.0977 0.64844 2.1484 1.375 3.1445 2.1719 0.33203 0.26562 0.65234 0.53906 0.97266 0.82031 0.32031 0.28516 0.63281 0.57422 0.94141 0.875l-0.003906-0.003906c3.1719 3.0859 5.5234 6.9102 6.8398 11.137 0.11328 0.37109 0.21875 0.74609 0.32031 1.1211 0.097656 0.375 0.1875 0.75781 0.26953 1.1367-0.37109 0.11719-0.74219 0.23047-1.1172 0.33203-0.375 0.10156-0.75 0.19531-1.1289 0.28125h-0.003906c-4.3242 0.99219-8.8281 0.87109-13.094-0.34375-2.3867 2.6523-5.1328 4.957-8.1562 6.8516 6.6406 3.1602 14.09 4.1992 21.34 2.9766 0.41016-0.070312 0.81641-0.14062 1.2227-0.22656 0.41406-0.085938 0.82422-0.17969 1.2305-0.27734 3.3789-0.81641 6.6211-2.125 9.6172-3.8789v-0.13281h0.003907c0-3.4336-0.49219-6.8477-1.4648-10.145z"/>
 </g>
</svg>