<svg t="1694969480213" class="icon" viewBox="0 0 1024 1024" version="1.1" xmlns="http://www.w3.org/2000/svg" p-id="2216" width="200" height="200"><path d="M512 32c91.818667 0 166.272 214.912 166.272 480l-0.085333 15.829333C675.285333 785.621333 602.026667 992 512 992c-90.88 0-164.778667-210.645333-166.272-472.064V512C345.728 246.912 420.181333 32 512 32z m0 112.213333l-1.066667 1.706667c-8.618667 14.506667-17.493333 34.133333-25.813333 58.112-27.221333 78.592-43.392 189.013333-43.392 307.968 0 118.912 16.213333 229.376 43.392 307.968 8.277333 23.936 17.194667 43.562667 25.813333 58.069333l1.066667 1.706667 1.066667-1.706667c7.893333-13.312 16.042667-30.890667 23.722666-52.181333l2.090667-5.888c27.221333-78.592 43.392-189.013333 43.392-307.968 0-118.912-16.213333-229.376-43.392-307.968a322.346667 322.346667 0 0 0-25.813333-58.069333L512 144.213333z" p-id="2217" fill="#ffffff"></path><path d="M927.701333 272c45.909333 79.530667-102.997333 251.477333-332.544 384l-13.781333 7.850667C356.693333 790.229333 141.312 829.952 96.298667 752c-45.44-78.72 100.010667-248.021333 325.717333-380.032l6.826667-3.968c229.589333-132.565333 452.949333-175.530667 498.858666-96zM830.506667 328.106667h-2.048a322.346667 322.346667 0 0 0-63.146667 6.613333c-81.706667 15.744-185.472 56.96-288.426667 116.394667-103.04 59.477333-190.592 128.725333-245.034666 191.573333-16.597333 19.2-29.141333 36.693333-37.376 51.413333l-0.981334 1.749334 2.048 0.085333c15.445333 0.213333 34.773333-1.536 57.045334-5.546667l6.144-1.109333c81.664-15.744 185.429333-56.96 288.426666-116.394667 102.997333-59.477333 190.549333-128.725333 244.992-191.573333 16.597333-19.2 29.141333-36.693333 37.376-51.413333l0.981334-1.792z" p-id="2218" fill="#ffffff"></path><path d="M927.701333 752c-45.909333 79.530667-269.226667 36.565333-498.858666-96l-13.653334-7.978667c-221.781333-131.413333-363.861333-298.069333-318.890666-376.021333 45.482667-78.72 264.832-37.418667 491.946666 92.032l6.912 3.968c229.546667 132.522667 378.453333 304.469333 332.544 384z m-97.194666-56.106667l-0.981334-1.792a322.346667 322.346667 0 0 0-37.376-51.370666c-54.442667-62.890667-141.994667-132.138667-244.992-191.573334-102.997333-59.477333-206.762667-100.693333-288.426666-116.437333a322.346667 322.346667 0 0 0-63.189334-6.656l-2.005333 0.042667 0.938667 1.792c7.552 13.482667 18.730667 29.354667 33.28 46.634666l4.096 4.736c54.442667 62.890667 141.994667 132.138667 244.992 191.573334 102.997333 59.477333 206.762667 100.693333 288.426666 116.437333a322.346667 322.346667 0 0 0 63.189334 6.656l2.048-0.042667z" p-id="2219" fill="#ffffff"></path></svg>