<svg t="1694967641094" class="icon" viewBox="0 0 1024 1024" version="1.1" xmlns="http://www.w3.org/2000/svg" p-id="21305" width="200" height="200"><path d="M767.75619 512.75581c23.625143 56.124952 41.033143 112.323048 15.945143 171.617523-30.573714 72.289524-113.761524 116.931048-188.245333 133.558857q-87.82019 19.602286-168.521143-18.944-28.988952-13.824-48.542476-36.327619c-34.767238-40.033524-19.553524-103.619048 33.206857-118.637714 18.041905-5.144381 39.399619-2.413714 58.636191 1.194667q3.730286 0.707048 0.512 2.706286c-12.409905 7.753143-24.478476 18.70019-32.402286 30.98819-18.285714 28.330667-19.260952 68.242286 4.193524 94.134857 26.794667 29.622857 80.944762 34.694095 117.613714 28.988953 79.993905-12.458667 158.427429-62.025143 150.162286-154.575239-6.680381-75.142095-62.976-125.635048-129.877334-153.916952-47.85981-20.21181-100.08381-37.546667-142.896762-68.632381-41.301333-29.96419-67.949714-82.310095-53.51619-132.339809 11.410286-39.521524 47.128381-78.969905 72.46019-113.371429q40.667429-55.222857 46.396953-123.733333 0.121905-1.560381 1.438476-0.731429 3.657143 2.29181 6.363429 5.729524 29.96419 37.790476 54.979047 79.043048c13.726476 22.649905 26.770286 53.613714 18.578286 79.993904-8.97219 28.891429-37.668571 43.129905-57.368381 64.658286-29.500952 32.256-55.710476 81.846857-31.036952 123.977143q15.969524 27.282286 42.715428 43.349333a0.707048 0.707048 0 0 0 0.828953-1.121524c-44.153905-40.740571-37.839238-89.283048-5.436953-132.973714 20.089905-27.087238 45.080381-46.128762 73.313524-63.926857a1.26781 1.26781 0 0 1 1.901714 1.414095c-8.216381 29.403429-18.16381 63.683048-18.70019 91.477334-1.340952 70.753524 43.300571 128.999619 92.623238 174.61638a0.828952 0.804571 17.5 0 0 1.365333-0.707047c-4.266667-30.427429-24.649143-45.665524-38.473143-70.680381-27.355429-49.542095-10.873905-92.184381 17.846857-136.679619q5.607619-8.704 12.995048-15.09181a0.975238 0.975238 0 0 1 1.584762 0.560762q17.822476 94.305524 90.258286 155.37981c15.457524 13.04381 33.03619 26.209524 46.567619 40.667428 42.179048 45.056 89.063619 118.905905 70.168381 183.759238-17.895619 61.391238-83.821714 106.666667-135.363048 136.899048q-41.496381 24.33219-83.480381 47.884191c-53.735619 30.159238-99.669333 68.803048-145.408 109.616761a1.365333 1.389714 44.2 0 1-1.80419 0.048762c-56.783238-47.274667-117.345524-92.988952-179.980191-127.902476q-58.758095-32.792381-115.833905-68.437333c-44.202667-27.623619-86.601143-58.733714-89.063619-114.273524q-0.828952-18.870857 7.387429-48.006095c24.941714-88.454095 90.502095-155.428571 141.385143-222.890667q30.329905-40.228571 50.517333-85.796571a0.75581 0.75581 0 0 1 1.438476 0.316952c-1.487238 104.301714 101.13219 148.528762 182.125715 178.614857a0.75581 0.731429 55.7 0 1-0.268191 1.438476c-91.282286-1.389714-176.615619 47.34781-201.191619 138.99581-14.238476 53.101714-0.512 103.66781 38.619429 142.750476q11.434667 11.434667-3.023238 4.169143c-73.094095-36.742095-149.162667-106.73981-120.417524-198.022095 9.557333-30.378667 24.771048-51.95581 43.885714-76.263619q1.511619-1.950476-0.804571-1.121524-4.315429 1.536-10.24 5.412571-31.402667 20.48-53.101715 46.201905c-37.205333 44.080762-40.935619 106.179048-9.557333 154.307048 17.091048 26.209524 46.299429 47.006476 75.849143 62.976q66.096762 35.718095 132.339809 71.192381c37.692952 20.187429 71.655619 43.324952 105.472 68.242285q0.999619 0.75581 2.048 0.073143c45.129143-29.647238 89.673143-61.513143 137.118477-87.235047q42.593524-23.088762 84.845714-46.762667c48.615619-27.257905 95.280762-52.419048 112.493714-107.812572 20.382476-65.560381-29.744762-122.514286-82.578286-150.966857q-1.852952-0.999619-1.048381 0.926477z" fill="#D6694C" p-id="21306"></path><path d="M484.864 536.502857c74.215619-15.579429 155.40419 25.063619 163.474286 104.935619 5.241905 51.760762-48.006095 85.308952-89.795048 100.864q-11.800381 4.388571-2.755048-4.388571c24.576-23.844571 19.480381-70.826667 2.02362-96.792381-34.377143-51.2-105.423238-55.612952-156.720762-28.428191a0.999619 0.975238 89.1 0 1-1.340953-1.316571c18.407619-38.424381 41.520762-65.731048 85.113905-74.873905z" fill="#D6694C" p-id="21307"></path></svg>