<svg t="1691227324989" class="icon" viewBox="0 0 1024 1024" version="1.1" xmlns="http://www.w3.org/2000/svg" p-id="12860" width="200" height="200"><path d="M273.001 227.604v-16.773l-1.745 129.095s106.416 130.839 174.452 179.685v33.146s-151.773 134.327-165.729 162.24l-2.907 130.838-58.151 32.565-1.162 81.413H512v-0.19h294.241l-1.161-81.41-58.153-32.565-2.905-130.838c-13.957-27.912-165.73-162.24-165.73-162.24v-33.146c68.037-48.846 174.453-179.686 174.453-179.686L751 210.644v16.961H273.001zM531.77 446.75v276.783l132.003 94.218v41.869H512v0.185H360.226v-41.866l132.002-94.218V446.938l-56.115-25.586 1.455-26.743H512v-0.187h74.432l1.456 26.742-56.118 25.586z" p-id="12861" fill="#947c7c"></path><path d="M815.546 102.484H512v0.188H208.454v108.159h64.547l477.998-0.187h64.547z" p-id="12862" fill="#947c7c"></path></svg>