<svg t="1695550823275" class="icon" viewBox="0 0 1024 1024" version="1.1" xmlns="http://www.w3.org/2000/svg" p-id="31932" data-spm-anchor-id="a313x.search_index.0.i68.76343a81orr21I" width="32" height="32"><path d="M843.34 154.53c-117.05 0-312.04-84.47-320.19-88.09-0.45-0.17-0.96-0.12-1.42-0.26-3.23-1.15-6.65-1.95-10.35-1.95-0.02 0-0.03 0.01-0.05 0.01s-0.03-0.01-0.05-0.01c-3.68 0-7.1 0.81-10.34 1.97-0.43 0.15-0.9 0.08-1.32 0.25-8.15 3.52-203.14 88.09-320.19 88.09-18.1 0-29.26 11.26-29.26 29.26v290.62c0 10.74 3.98 265.67 344.47 477.73 3.85 3.18 8.11 5.83 12.46 7.11 0.86 0.43 1.93 0.87 4.39 0.98 0.09-0.04 0.17-0.08 0.27-0.12 0.04 0 0.09 0.02 0.13 0.02 7.34-1.71 10.86-4.52 10.66-4.63l2.92-1.81C868.58 741.3 872.5 485.07 872.5 474.31V183.79c0-18.1-11.16-29.26-29.16-29.26z m-29.07 319.78c0 2.24-3.41 218.16-288.8 411.24l-2.99-757.45c51.7 20.55 181.09 67.97 281.03 80.83l10.76 1.41v263.97z" p-id="31933" data-spm-anchor-id="a313x.search_index.0.i67.76343a81orr21I" class="" fill="#955dd9"></path><path d="M814.27 474.31V210.34l-10.76-1.4c-99.94-12.86-229.33-60.28-281.03-80.83l2.99 757.45c285.4-193.09 288.8-409.01 288.8-411.25zM511.38 64.22h-0.1c0.02 0 0.03 0.01 0.05 0.01s0.03-0.01 0.05-0.01z" fill="#c9a1f8" p-id="31934" data-spm-anchor-id="a313x.search_index.0.i64.76343a81orr21I" class=""></path></svg>