<svg t="1703402707978" class="icon" viewBox="0 0 1024 1024" version="1.1" xmlns="http://www.w3.org/2000/svg" p-id="14100" width="32" height="32"><path d="M769.2 594.4c-17.7-19.2-37.4-36.7-58.5-52.5l0.6-1c-30-22.5-64.4-39.9-99.7-52.1 38.8-28 69.4-65.2 88.2-109.1-2.1 15.7 12.1-32 12.1-79.8 0-63.7-27.1-125.8-74-168.5S526 65.9 462.3 72.2c-40.3 4.3-77 17.9-108.6 38.7-12.9 6.9-36 28.9-55.5 54.7-38.7 52.1-51 120-38.4 182.5 11.4 57 47.6 107.9 94.9 141-112.3 39.6-201 130.4-240 242.9-12.9 36.8-20.3 79.4-20.3 123.8 0 15.3 12.1 28.7 27.1 30.3h344.3C469 724.4 601 594.2 763.5 594.2c1.9 0 3.7 0.1 5.7 0.2z" fill="#f4cf82" p-id="14101" data-spm-anchor-id="a313x.search_index.0.i1.28003a81lfqJLI" class="selected"></path><path d="M609.2 775h305.5c1.1 0 2.2-0.1 3.3-0.2h0.1c1.1-0.1 2.1-0.3 3.2-0.5h0.2c1-0.2 2-0.5 3-0.8 0.1 0 0.2-0.1 0.3-0.1 0.9-0.3 1.8-0.7 2.7-1 0.1-0.1 0.3-0.1 0.4-0.2l2.4-1.2 0.6-0.3c0.7-0.4 1.4-0.9 2.1-1.4 0.2-0.2 0.4-0.3 0.6-0.5 0.6-0.5 1.3-1 1.9-1.5 0.2-0.2 0.4-0.3 0.6-0.5l1.8-1.8 0.3-0.3 0.2-0.2c0.6-0.6 1.1-1.3 1.6-2 0.1-0.2 0.2-0.3 0.3-0.5 0.5-0.7 1-1.4 1.4-2.2 0.1-0.1 0.2-0.3 0.3-0.4 0.4-0.8 0.8-1.5 1.2-2.3 0.1-0.1 0.1-0.2 0.2-0.4 0.4-0.8 0.7-1.6 1-2.5 0-0.1 0.1-0.2 0.1-0.3 0.3-0.8 0.5-1.7 0.7-2.5 0-0.1 0.1-0.2 0.1-0.4 0.2-0.8 0.3-1.6 0.4-2.5 0-0.2 0.1-0.3 0.1-0.5 0.1-0.8 0.2-1.6 0.2-2.3v-0.7-0.8c0-0.5-0.1-1-0.1-1.5v-0.7c-0.1-0.8-0.1-1.6-0.3-2.4 0-0.2-0.1-0.4-0.1-0.6-0.1-0.8-0.3-1.6-0.5-2.4 0-0.2-0.1-0.4-0.1-0.5-0.2-0.8-0.4-1.6-0.7-2.3-0.1-0.2-0.1-0.4-0.2-0.6-0.3-0.7-0.6-1.5-0.9-2.2-0.1-0.2-0.2-0.4-0.3-0.7-0.3-0.7-0.7-1.3-1.1-1.9-0.1-0.2-0.3-0.5-0.4-0.7l-1.2-1.8c-0.2-0.2-0.4-0.5-0.5-0.7-0.4-0.6-0.9-1.1-1.4-1.7l-0.6-0.6c-0.5-0.6-1.1-1.1-1.7-1.6l-0.3-0.3-81.8-72.3c-12.8-11.3-32.4-10.1-43.7 2.7-11.3 12.8-10.1 32.4 2.7 43.7l20.5 18.1H609.2c-17.1 0-31 13.9-31 31 0.1 17 13.9 30.8 31 30.8zM916.1 811H610.5c-0.4 0-0.7 0-1.1 0.1-0.4 0-0.9 0-1.3 0.1-0.6 0-1.2 0.1-1.9 0.2-0.4 0.1-0.7 0.1-1.1 0.2-0.6 0.1-1.3 0.2-1.9 0.4-0.3 0.1-0.7 0.2-1 0.3-0.6 0.2-1.3 0.4-1.9 0.6-0.3 0.1-0.7 0.2-1 0.4-0.6 0.2-1.2 0.5-1.8 0.7-0.3 0.2-0.7 0.3-1 0.5-0.5 0.3-1.1 0.6-1.6 0.9-0.4 0.2-0.7 0.4-1 0.6-0.5 0.3-1 0.7-1.5 1-0.3 0.2-0.7 0.5-1 0.7-0.5 0.4-1 0.8-1.4 1.2-0.3 0.2-0.6 0.5-0.8 0.8-0.5 0.5-1 1-1.4 1.5-0.1 0.2-0.3 0.3-0.4 0.5-0.1 0.1-0.1 0.2-0.2 0.3-0.5 0.5-0.9 1.1-1.3 1.7-0.2 0.3-0.4 0.5-0.6 0.8-0.4 0.6-0.8 1.1-1.1 1.7-0.2 0.3-0.4 0.6-0.5 0.9l-0.9 1.8c-0.2 0.3-0.3 0.6-0.5 1-0.3 0.6-0.5 1.2-0.7 1.8-0.1 0.3-0.3 0.7-0.4 1-0.2 0.6-0.3 1.2-0.5 1.8l-0.3 1.2c-0.1 0.6-0.2 1.1-0.3 1.7-0.1 0.4-0.2 0.9-0.2 1.3-0.1 0.5-0.1 1.1-0.1 1.6s-0.1 1-0.1 1.5v1.6c0 0.5 0 1 0.1 1.5 0 0.5 0.1 1.1 0.2 1.6s0.1 0.9 0.2 1.4c0.1 0.6 0.2 1.1 0.3 1.6 0.1 0.4 0.2 0.9 0.3 1.3 0.2 0.5 0.3 1.1 0.5 1.6 0.2 0.4 0.3 0.9 0.5 1.3 0.2 0.5 0.4 1 0.6 1.4 0.2 0.5 0.4 0.9 0.7 1.4 0.2 0.4 0.4 0.8 0.7 1.2 0.3 0.5 0.6 0.9 0.9 1.4 0.2 0.4 0.5 0.7 0.7 1.1 0.3 0.5 0.7 0.9 1 1.4 0.3 0.4 0.6 0.7 0.9 1.1 0.4 0.4 0.7 0.8 1.1 1.2 0.3 0.4 0.7 0.7 1.1 1.1l0.7 0.7L672 938c5.7 5 13 7.8 20.5 7.8 8.9 0 17.3-3.8 23.2-10.5 11.3-12.8 10.1-32.4-2.7-43.7L692.4 873h223.7c17.1 0 31-13.9 31-31s-13.9-31-31-31z" fill="#f4cf82" p-id="14102" data-spm-anchor-id="a313x.search_index.0.i4.28003a81lfqJLI" class="selected"></path></svg>