<svg t="1691227495178" class="icon" viewBox="0 0 1024 1024" version="1.1" xmlns="http://www.w3.org/2000/svg" p-id="2475" width="200" height="200"><path d="M863.992 154.045l0.105-0.105s-0.215-0.19-0.615-0.522c-0.328-0.396-0.516-0.607-0.516-0.607l-0.104 0.104c-7.565-6.057-48.773-35.739-88.601 1.024 0 0-16.103 23.73-11.865 45.765l-149.16 120.345s-55.088-46.612-62.716-80.513l-96.615 53.393 80.512 74.581-309.9 313.012-80.229 192.099-0.002 0.001h0.002l192.098-80.229 313.01-309.903 74.58 80.513 53.393-96.616c-33.899-7.627-80.513-62.715-80.513-62.715l120.346-149.161c22.035 4.238 45.765-11.865 45.765-11.865 36.763-39.827 7.082-81.034 1.025-88.601z" fill="#8a8a8a" p-id="2476"></path><path d="M774.406 456.688V321.051l-55.029 68.206v26.263c15.624 15.727 37.478 34.865 55.029 41.168zM719.377 570.508v1.975s-95.545 146.366-219.548 241.91c-32.563-25.09-63.159-53.684-90.582-82.212l-35.896 35.538c37.563 40.212 80.452 81.272 126.478 116.734 155.085-119.491 274.577-302.544 274.577-302.544V489.27l-48.682 88.09-6.347-6.852zM296.431 595.842c-10.431-14.603-16.149-23.359-16.149-23.359v-278.5c73.182-24.395 219.548-38.625 219.548-38.625s1.351 0.132 3.84 0.389l52.641-29.091 2.479 11.021c1.798 7.99 6.902 17.192 13.511 26.448 24.89 3.463 53.296 7.903 80.36 13.229l71.308-57.533c-95.52-22.016-224.14-34.523-224.14-34.523s-183.052 17.797-274.578 48.305v348.306s12.776 19.57 35.388 50.082l35.792-36.149z" fill="#8a8a8a" p-id="2477"></path><path d="M613.461 308.982l14.053-11.338a1260.515 1260.515 0 0 0-31.29-5.337c6.315 6.532 12.377 12.297 17.237 16.675zM299.491 315.06v254.131s3.334 5.105 9.521 13.942l213.222-215.359-82.686-76.592 9.946-5.496c-44.918 5.859-109.649 15.922-150.003 29.374zM700.167 569.191V549.77l-51.033-55.094-227.307 225.049c23.814 24.425 50.117 48.727 78.002 70.212 113.154-87.186 200.338-220.746 200.338-220.746z" fill="#8a8a8a" p-id="2478"></path></svg>