<svg t="1709392925679" class="icon" viewBox="0 0 1024 1024" version="1.1" xmlns="http://www.w3.org/2000/svg" p-id="6170" width="32" height="32"><path d="M612.7616 364.544l-1.4336-0.2048v-0.2048l-42.3936-7.9872 14.7456 42.1888 29.0816-33.792z m-71.68 142.1312l43.2128 7.9872-14.7456-41.3696-28.4672 33.3824zM712.704 305.152l-29.2864 34.4064 44.2368 8.192L712.704 305.152zM254.1568 823.9104l130.2528-630.1696-371.9168 172.032c-10.6496 4.7104-15.36 17.408-10.6496 28.0576l284.0576 595.1488c4.7104 10.6496 17.2032 15.5648 27.8528 10.6496l223.6416-103.424L266.24 844.8c-8.3968-1.8432-13.9264-11.0592-12.0832-20.8896z m402.6368-217.9072l27.4432-32.1536-41.3696-7.7824 13.9264 39.936z m-1.6384-233.6768l-56.9344 66.7648 0.2048 0.4096-0.2048 0.2048 29.696 83.3536 85.8112 15.9744 0.2048-0.2048h0.2048l57.1392-66.9696-29.2864-83.5584-86.8352-15.9744z m173.2608 32.1536l-43.2128-7.9872 14.5408 41.5744 28.672-33.5872z m175.5136-282.624L505.0368 27.8528c-12.9024-2.4576-25.3952 6.144-27.8528 19.0464L328.4992 770.048c-2.4576 12.9024 6.144 25.3952 19.0464 27.8528l498.8928 94.0032c12.9024 2.4576 25.3952-6.144 27.8528-19.0464L1022.976 149.504c2.4576-12.9024-6.144-25.1904-19.0464-27.648z m-189.2352 358.6048l12.9024 36.6592h-0.2048l31.1296 88.6784-113.8688-21.0944v0.4096l-16.384-3.072-85.6064 100.5568-43.8272-124.5184-26.4192-4.9152v-0.4096l-103.8336-19.2512 86.016-101.1712-44.032-125.3376 129.8432 24.1664 86.016-100.9664 42.3936 120.6272h0.2048l1.6384 4.7104 129.6384 24.1664-85.6064 100.7616z m-23.1424 49.7664l-6.144-17.408-28.8768 33.9968 43.8272 8.192-8.8064-24.7808z" fill="#424142" p-id="6171"></path></svg>